# xmcd
#
# Track frame offsets:
#   150
#   17025
#   32792
#   50177
#   67662
#   81969
#   101292
#   117569
#   135160
#   154573
#   170908
#   188157
#   204149
#   223622
#   242696
#   259534
#
# Disc length: 3709 seconds
#
# Revision: 0
# Processed by: cddbd v1.5.2PL0 Copyright (c) Steve Scherf et al.
# Submitted via: GXTranscoder 2.24.2980
#
DISCID=d20e7b10
DTITLE=Wissen für alle - Allgmeinbildung Biologie Chemie
DYEAR=1900
DGENRE=Kinder
TTITLE0=Das Leben und sein Ursprung
TTITLE1=Charles Darwin
TTITLE2=Mendel und die Vererbungslehre
TTITLE3=Die Reiche der Lebewesen
TTITLE4=Über die Pflanzen
TTITLE5=Über die Tiere
TTITLE6=Die Entwicklung des Menschen
TTITLE7=Aufrecht und intelligent
TTITLE8=Ärzte und Arzneien
TTITLE9=Unter dem Messer
TTITLE10=Alles ist Stoff
TTITLE11=Kleiner, kleiner, Atom
TTITLE12=Element in Reih und Glied
TTITLE13=Organische und anorganische Chemie
TTITLE14=Wenn sich Stoffe verändern
TTITLE15=Kunststoffe
EXTD=
EXTT0=
EXTT1=
EXTT2=
EXTT3=
EXTT4=
EXTT5=
EXTT6=
EXTT7=
EXTT8=
EXTT9=
EXTT10=
EXTT11=
EXTT12=
EXTT13=
EXTT14=
EXTT15=
PLAYORDER=
